<?xml version="1.0" encoding="UTF-8"?>
<svg xmlns="http://www.w3.org/2000/svg" xmlns:xlink="http://www.w3.org/1999/xlink" width="50pt" height="50pt" viewBox="0 0 50 50" version="1.1">
<g id="surface1">
<path style=" stroke:none;fill-rule:nonzero;fill:rgb(0%,0%,0%);fill-opacity:1;" d="M 21.726562 6.535156 L 23.898438 4.367188 C 24.8125 3.449219 26.296875 3.449219 27.207031 4.367188 L 46.191406 23.339844 C 47.109375 24.257812 47.109375 25.742188 46.191406 26.648438 L 27.207031 45.632812 C 26.289062 46.554688 24.804688 46.554688 23.898438 45.632812 L 21.726562 43.46875 C 20.800781 42.539062 20.820312 41.023438 21.765625 40.117188 L 33.535156 28.90625 L 5.46875 28.90625 C 4.171875 28.90625 3.125 27.859375 3.125 26.5625 L 3.125 23.4375 C 3.125 22.140625 4.171875 21.09375 5.46875 21.09375 L 33.535156 21.09375 L 21.765625 9.882812 C 20.8125 8.976562 20.789062 7.460938 21.726562 6.535156 Z M 21.726562 6.535156 "/>
</g>
</svg>
