<?xml version="1.0" encoding="iso-8859-1"?>
<!-- Generator: Adobe Illustrator 19.0.0, SVG Export Plug-In . SVG Version: 6.00 Build 0)  -->
<svg version="1.1" id="Capa_1" xmlns="http://www.w3.org/2000/svg" xmlns:xlink="http://www.w3.org/1999/xlink" x="0px" y="0px"
	 viewBox="0 0 512 512" height="50" width="50"  style="enable-background:new 0 0 512 512;" xml:space="preserve">
<path id="SVGCleanerId_0" style="fill:#7A403F;" d="M306.137,269.839c7.752-13.426-1.938-30.209-17.441-30.209h-65.391
	c-15.503,0-25.193,16.783-17.441,30.209c0,0,43.354,60.181,50.137,60.181C262.783,330.02,306.137,269.839,306.137,269.839z"/>
<path d="M256,340.019c-5.662,0-10.408-1.641-35.508-33.955c-11.663-15.015-22.631-30.228-22.741-30.38
	c-0.196-0.271-0.378-0.554-0.546-0.845c-5.448-9.436-5.448-20.703,0-30.139c5.447-9.437,15.204-15.069,26.101-15.069h65.391
	c10.896,0,20.653,5.633,26.101,15.069c5.447,9.436,5.447,20.703-0.001,30.139c-0.168,0.291-0.35,0.573-0.546,0.846
	c-0.109,0.151-11.079,15.364-22.741,30.379C266.407,338.378,261.663,340.019,256,340.019z M214.315,264.464
	c14.905,20.663,33.09,44.122,41.685,53.08c8.596-8.959,26.781-32.418,41.684-53.08c2.34-4.42,0.649-8.283-0.207-9.766
	c-0.88-1.525-3.498-5.07-8.782-5.07h-65.391c-5.284,0-7.901,3.546-8.782,5.07C213.666,256.181,211.977,260.044,214.315,264.464z
	 M306.137,269.839h0.01H306.137z"/>
<polygon style="fill:#FEBD01;" points="256.001,371.69 270.925,403.094 305.405,407.585 280.149,431.483 286.534,465.662 
	256.001,449.028 225.467,465.662 231.851,431.483 206.596,407.585 241.075,403.094 "/>
<polygon style="fill:#2C68A3;" points="299.472,413.199 280.149,431.483 286.534,465.662 256.001,449.028 225.467,465.662 
	231.851,431.483 212.529,413.199 130.612,413.199 130.612,501.971 381.388,501.971 381.388,413.199 "/>
<path d="M353.338,475.934c-0.65,0-1.3-0.07-1.95-0.2c-0.64-0.12-1.27-0.32-1.87-0.57s-1.18-0.55-1.73-0.92
	c-0.54-0.359-1.06-0.779-1.52-1.239c-0.46-0.461-0.88-0.971-1.24-1.521c-0.36-0.54-0.67-1.12-0.92-1.72
	c-0.25-0.61-0.44-1.24-0.57-1.88c-0.13-0.641-0.2-1.301-0.2-1.95c0-0.65,0.07-1.311,0.2-1.95c0.13-0.64,0.32-1.27,0.57-1.87
	c0.25-0.609,0.56-1.189,0.92-1.729c0.36-0.551,0.78-1.061,1.24-1.521s0.98-0.88,1.52-1.24c0.55-0.359,1.13-0.67,1.73-0.92
	s1.23-0.44,1.87-0.569c1.29-0.261,2.62-0.261,3.91,0c0.64,0.13,1.27,0.319,1.87,0.569s1.18,0.56,1.73,0.92
	c0.54,0.36,1.06,0.78,1.52,1.24c0.46,0.46,0.88,0.97,1.24,1.521c0.36,0.54,0.67,1.12,0.92,1.729c0.25,0.601,0.44,1.23,0.57,1.87
	c0.13,0.64,0.19,1.3,0.19,1.95c0,0.649-0.06,1.309-0.19,1.95c-0.13,0.64-0.32,1.27-0.57,1.88c-0.25,0.6-0.56,1.18-0.92,1.72
	c-0.36,0.55-0.78,1.06-1.24,1.521c-0.46,0.46-0.98,0.88-1.52,1.239c-0.55,0.37-1.13,0.67-1.73,0.92s-1.23,0.45-1.87,0.57
	C354.648,475.864,353.998,475.934,353.338,475.934z"/>
<path style="fill:#A8805D;" d="M427.321,245.901v0.385c0,32.64-10.706,56.344-27.278,76.362
	c-13.638,16.463-30.527,29.51-49.321,38.675c-33.786,16.463-74.594,4.346-94.722-27.387c-20.128,31.732-60.936,43.85-94.722,27.387
	c-18.794-9.165-35.683-22.211-49.321-38.675c-8.286-10.005-15.1-20.938-19.851-33.45c-4.75-12.504-7.427-26.587-7.427-42.912
	c0-17.086,2.39-34.102,7.101-50.526l22.962-80.165c17.856-62.328,74.841-105.28,139.668-105.289h3.339
	c17.086,0.01,33.618,2.993,49.034,8.533c43.099,15.476,77.468,50.882,90.604,96.776l19.357,67.602l3.487,12.188
	C424.931,211.829,427.321,228.825,427.321,245.901z"/>
<path style="fill:#965051;" d="M91.781,195.76l22.962-80.165c9.145-31.921,28.556-58.755,54.024-77.346l-11.509-18.604
	c-6.424-10.384-20.499-12.785-30.001-5.114L24.753,97.275c-13.421,10.834-18.283,29.109-12.02,45.18l38.89,99.781
	c4.133,10.601,18.702,11.694,24.368,1.826l9.687-16.869C86.79,216.568,88.83,206.048,91.781,195.76z"/>
<path style="fill:#7A403F;" d="M85.86,225.521l-23.467-60.233c-6.263-16.071-1.401-34.346,12.02-45.18l63.382-51.162
	c8.759-11.781,19.219-22.116,30.971-30.695l-11.509-18.604c-6.424-10.384-20.499-12.785-30.001-5.114L24.753,97.275
	c-13.421,10.834-18.283,29.109-12.02,45.18l38.89,99.781c4.133,10.601,18.702,11.694,24.368,1.826l9.687-16.869
	C85.735,226.642,85.798,226.071,85.86,225.521z"/>
<path style="fill:#965051;" d="M487.247,97.275L384.743,14.532c-9.502-7.67-23.576-5.27-30.001,5.114l-11.474,18.548
	c25.519,18.599,44.971,45.462,54.118,77.422l19.357,67.602l3.487,12.188c2.986,10.429,5.03,21.091,6.131,31.855l9.648,16.801
	c5.666,9.867,20.236,8.775,24.368-1.826l38.89-99.781C505.531,126.383,500.668,108.108,487.247,97.275z"/>
<path style="fill:#7A403F;" d="M487.247,97.275L384.743,14.532c-9.502-7.67-23.576-5.27-30.001,5.114l-11.474,18.548
	c11.874,8.654,22.436,19.092,31.254,31.007l63.065,50.906c13.421,10.834,18.283,29.109,12.02,45.18l-23.441,60.158
	c0.012-0.001,0.207,1.814,0.195,1.815l9.648,16.801c5.666,9.867,20.236,8.775,24.368-1.826l38.89-99.781
	C505.531,126.383,500.668,108.108,487.247,97.275z"/>
<path style="fill:#A8805D;" d="M256.001,333.937c-19.964,31.474-60.27,43.654-93.893,27.784v51.477h50.421l-5.933-5.614l34.48-4.49
	l14.925-31.404l14.924,31.404l34.479,4.49l-5.933,5.614h50.421v-51.477C316.27,377.591,275.964,365.412,256.001,333.937z"/>
<path style="fill:#D4AB73;" d="M416.744,183.218c-18.202,18.093-43.297,29.273-71,29.273c-55.642,0-100.736-45.095-100.736-100.736
	c0-41.825,25.48-77.695,61.775-92.914c43.099,15.476,77.468,50.882,90.604,96.776L416.744,183.218z"/>
<g>
	<path id="SVGCleanerId_0_1_" style="fill:#7A403F;" d="M306.137,269.839c7.752-13.426-1.938-30.209-17.441-30.209h-65.391
		c-15.503,0-25.193,16.783-17.441,30.209c0,0,43.354,60.181,50.137,60.181C262.783,330.02,306.137,269.839,306.137,269.839z"/>
</g>
<path d="M493.528,89.494L391.024,6.752c-6.76-5.456-15.55-7.751-24.114-6.289c-8.565,1.46-16.099,6.534-20.671,13.923l-6.003,9.704
	c-6.794-4.275-13.941-8.049-21.404-11.249c-0.975-0.418-1.962-0.813-2.947-1.212c-0.453-0.183-0.9-0.378-1.355-0.557
	c-1.446-0.569-2.902-1.117-4.368-1.644c-0.001,0-0.003-0.001-0.004-0.001c-16.809-6.04-34.441-9.108-52.409-9.12h-3.341
	c-29.581,0.005-57.888,8.201-82.628,23.809l-6.019-9.732c-4.57-7.388-12.105-12.463-20.67-13.922
	c-8.564-1.462-17.354,0.832-24.115,6.289L18.474,89.494C1.587,103.124-4.463,125.865,3.417,146.086l38.891,99.781
	c3.324,8.524,11.055,14.244,20.179,14.928c0.608,0.045,1.213,0.068,1.814,0.068c3.858,0,7.555-0.936,10.845-2.652
	c0.972,12.28,3.485,23.666,7.614,34.534c4.868,12.826,11.901,24.692,21.5,36.282c13.266,16.014,29.349,29.055,47.85,38.838v35.333
	h-21.497c-5.522,0-9.999,4.477-9.999,9.999v88.773c0,5.522,4.476,9.999,9.999,9.999h250.775c5.522,0,9.999-4.476,9.999-9.999
	v-88.773c0-5.521-4.476-9.999-9.999-9.999h-21.495v-35.333c18.501-9.783,34.583-22.823,47.852-38.842
	c17.619-21.284,27.017-44.03,29.118-70.81c3.288,1.714,6.983,2.648,10.839,2.648c0.601-0.001,1.207-0.023,1.815-0.068
	c9.123-0.684,16.855-6.403,20.179-14.928l38.89-99.781C516.464,125.865,510.413,103.124,493.528,89.494z M429.153,190.243
	l-2.788-9.735c-0.004-0.014-0.005-0.028-0.009-0.043l-19.358-67.601c-0.591-2.068-1.24-4.111-1.915-6.142l26.223,21.167
	c10.076,8.133,13.687,21.703,8.984,33.769L429.153,190.243z M307.096,29.639c0.027,0.01,0.055,0.02,0.082,0.031
	c0.243,0.095,0.481,0.199,0.723,0.296c0.995,0.398,1.986,0.8,2.969,1.22c0.398,0.17,0.791,0.353,1.187,0.527
	c0.819,0.36,1.639,0.719,2.45,1.094c0.455,0.211,0.902,0.434,1.354,0.649c0.743,0.354,1.487,0.707,2.223,1.074
	c0.482,0.24,0.955,0.493,1.433,0.739c0.697,0.359,1.395,0.715,2.085,1.085c0.493,0.265,0.979,0.541,1.469,0.812
	c0.664,0.367,1.329,0.732,1.986,1.11c0.5,0.287,0.992,0.585,1.488,0.879c0.636,0.377,1.273,0.752,1.902,1.138
	c0.501,0.308,0.995,0.626,1.491,0.94c0.614,0.389,1.229,0.776,1.836,1.174c0.496,0.326,0.986,0.66,1.478,0.992
	c0.596,0.402,1.191,0.803,1.78,1.214c0.492,0.344,0.978,0.696,1.466,1.046c0.576,0.414,1.152,0.827,1.721,1.25
	c0.487,0.361,0.968,0.73,1.449,1.097c0.559,0.427,1.118,0.854,1.67,1.289c0.477,0.376,0.95,0.759,1.422,1.142
	c0.544,0.441,1.088,0.883,1.625,1.333c0.469,0.392,0.933,0.789,1.396,1.187c0.527,0.453,1.053,0.908,1.573,1.369
	c0.46,0.407,0.915,0.819,1.369,1.233c0.512,0.467,1.023,0.936,1.528,1.41c0.449,0.421,0.894,0.847,1.336,1.274
	c0.496,0.478,0.989,0.959,1.477,1.445c0.439,0.437,0.875,0.877,1.308,1.32c0.48,0.491,0.957,0.985,1.43,1.483
	c0.426,0.449,0.849,0.901,1.269,1.355c0.466,0.505,0.929,1.014,1.387,1.526c0.414,0.462,0.825,0.925,1.231,1.393
	c0.451,0.517,0.897,1.038,1.339,1.562c0.401,0.474,0.799,0.95,1.193,1.429c0.436,0.53,0.866,1.065,1.293,1.601
	c0.387,0.485,0.772,0.972,1.153,1.463c0.42,0.543,0.835,1.09,1.247,1.639c0.372,0.496,0.745,0.994,1.111,1.495
	c0.406,0.556,0.804,1.117,1.201,1.679c0.358,0.506,0.715,1.012,1.066,1.523c0.391,0.569,0.773,1.145,1.156,1.72
	c0.342,0.516,0.686,1.03,1.021,1.551c0.375,0.581,0.741,1.169,1.106,1.756c0.328,0.525,0.656,1.05,0.977,1.58
	c0.359,0.595,0.709,1.196,1.059,1.797c0.311,0.532,0.624,1.063,0.927,1.599c0.345,0.61,0.679,1.227,1.014,1.843
	c0.293,0.538,0.59,1.074,0.876,1.617c0.329,0.625,0.646,1.256,0.967,1.886c0.275,0.543,0.555,1.084,0.824,1.631
	c0.314,0.642,0.616,1.291,0.921,1.938c0.257,0.546,0.518,1.088,0.768,1.637c0.302,0.664,0.59,1.336,0.882,2.006
	c0.235,0.54,0.477,1.078,0.704,1.622c0.293,0.697,0.57,1.402,0.851,2.105c0.211,0.526,0.428,1.049,0.632,1.578
	c0.285,0.739,0.553,1.485,0.825,2.23c0.184,0.503,0.375,1.002,0.553,1.507c0.29,0.826,0.563,1.66,0.837,2.493
	c0.143,0.431,0.294,0.858,0.432,1.292c0.404,1.27,0.792,2.547,1.16,3.832l17.672,61.725c-16.53,14.486-37.516,22.399-59.701,22.399
	c-50.033,0-90.738-40.704-90.738-90.738C255.007,76.388,275.325,44.571,307.096,29.639z M82.912,190.41l-11.204-28.754
	c-4.701-12.064-1.092-25.635,8.985-33.767l26.363-21.281c-0.682,2.059-1.326,4.137-1.927,6.234L82.912,190.41z M63.979,240.853
	c-0.832-0.063-2.334-0.438-3.04-2.249l-38.89-99.781c-4.703-12.065-1.092-25.635,8.984-33.768l102.504-82.742
	c1.861-1.502,4.091-2.289,6.417-2.289c0.587,0,1.181,0.051,1.776,0.151c2.953,0.504,5.447,2.185,7.023,4.73l6.78,10.961
	c-9.476,7.808-17.896,16.597-25.162,26.22l-62.24,50.242c-16.885,13.63-22.935,36.372-15.056,56.589l22.044,56.58l-7.8,13.585
	C66.352,240.769,64.814,240.915,63.979,240.853z M371.389,491.972H140.612v-68.775h21.497h46.441l12.475,11.805l-3.86,20.662
	h-58.506c-5.521,0-9.999,4.477-9.999,9.999s4.477,9.999,9.999,9.999h157.356c5.523,0,9.999-4.477,9.999-9.999
	s-4.475-9.999-9.999-9.999h-21.176l-3.86-20.662l12.474-11.805h46.441h21.496v68.775H371.389z M273.277,424.221
	c-2.467,2.335-3.58,5.761-2.957,9.099l2.522,13.497l-12.059-6.568c-2.982-1.625-6.584-1.625-9.566,0l-12.059,6.568l2.521-13.497
	c0.624-3.338-0.489-6.764-2.956-9.099l-9.974-9.438l13.616-1.773c3.368-0.438,6.282-2.557,7.74-5.623L256,394.986l5.894,12.401
	c1.458,3.067,4.372,5.185,7.74,5.623l13.616,1.773L273.277,424.221z M314.391,403.199c-1.459-2.991-4.335-5.092-7.695-5.529
	l-29.079-3.788l-12.587-26.484c-1.657-3.486-5.171-5.707-9.031-5.707c-3.859,0-7.374,2.222-9.03,5.707l-12.587,26.484l-29.079,3.788
	c-3.361,0.438-6.236,2.539-7.695,5.529h-25.503v-27.236c6.965,1.839,14.051,2.74,21.092,2.74c23.533,0,46.548-10.009,62.803-28.225
	c20.413,22.876,51.481,32.789,80.858,26.212c0.147-0.033,0.293-0.066,0.439-0.1c0.79-0.181,1.581-0.372,2.369-0.577
	c0.076-0.02,0.153-0.036,0.229-0.056v27.242L314.391,403.199L314.391,403.199z M256,317.544
	c-8.595-8.958-26.779-32.417-41.684-53.08c-2.339-4.42-0.649-8.283,0.208-9.766c0.88-1.525,3.498-5.07,8.782-5.07h65.391
	c5.284,0,7.901,3.546,8.781,5.07c0.857,1.482,2.547,5.345,0.208,9.766C282.781,285.126,264.597,308.585,256,317.544z
	 M417.322,246.287c0,27.159-7.937,49.397-24.978,69.983c-12.574,15.177-28.052,27.311-46.002,36.065
	c-0.595,0.29-1.197,0.554-1.797,0.824c-0.431,0.194-0.86,0.391-1.293,0.574c-0.455,0.192-0.913,0.37-1.37,0.551
	c-0.481,0.19-0.962,0.383-1.446,0.561c-0.386,0.142-0.775,0.271-1.163,0.405c-0.567,0.195-1.133,0.392-1.703,0.57
	c-0.283,0.089-0.568,0.168-0.852,0.252c-0.686,0.204-1.372,0.405-2.062,0.584c-0.146,0.038-0.292,0.07-0.437,0.107
	c-24.243,6.116-50.409-2.79-66.173-23.065c4.99-4.762,12.158-13.082,23.461-27.633c11.663-15.015,22.632-30.228,22.741-30.379
	c0.196-0.272,0.378-0.555,0.546-0.846c5.448-9.436,5.448-20.703,0.001-30.139c-5.447-9.437-15.204-15.069-26.1-15.069h-65.392
	c-10.896,0-20.653,5.633-26.101,15.069c-5.447,9.436-5.447,20.703,0.001,30.139c0.167,0.291,0.35,0.573,0.546,0.845
	c0.109,0.152,11.079,15.365,22.74,30.38c11.304,14.552,18.472,22.871,23.461,27.634c-15.782,20.3-41.992,29.204-66.259,23.044
	c-0.107-0.027-0.215-0.051-0.322-0.079c-0.726-0.189-1.449-0.399-2.172-0.615c-0.247-0.074-0.495-0.142-0.742-0.22
	c-0.604-0.189-1.205-0.397-1.806-0.604c-0.354-0.123-0.71-0.24-1.063-0.37c-0.515-0.189-1.027-0.394-1.54-0.597
	c-0.426-0.169-0.853-0.334-1.276-0.513c-0.462-0.195-0.92-0.405-1.379-0.611c-0.579-0.261-1.16-0.515-1.735-0.795
	c-17.953-8.755-33.431-20.89-46.003-36.065c-8.173-9.868-14.128-19.885-18.205-30.624c-4.559-11.999-6.775-24.873-6.775-39.359
	c0-6.036,0.316-12.06,0.943-18.047c0.001-0.003,0.001-0.005,0.001-0.007c0.008-0.074,0.017-0.15,0.025-0.225
	c1.057-9.968,2.975-19.835,5.745-29.494l22.961-80.165c16.535-57.717,70.016-98.035,130.056-98.045h3.333
	c7.679,0.005,15.287,0.654,22.774,1.932c-28.238,20.527-45.508,53.51-45.508,89.518c0,61.059,49.676,110.735,110.735,110.735
	c23.935,0,46.725-7.547,65.627-21.513c2.355,8.784,4.039,17.719,4.99,26.735c0.008,0.08,0.016,0.156,0.022,0.218
	c0,0.002,0,0.003,0.001,0.005c0.622,5.963,0.937,11.96,0.937,17.966v0.383H417.322z M489.951,138.823l-38.889,99.781
	c-0.707,1.812-2.208,2.187-3.041,2.249c-0.832,0.063-2.374-0.084-3.341-1.77l-7.802-13.587l22.045-56.576
	c7.879-20.22,1.83-42.961-15.056-56.591l-62.086-50.116c-7.358-9.77-15.834-18.621-25.279-26.404l6.742-10.9
	c1.577-2.548,4.071-4.229,7.024-4.731c2.952-0.503,5.861,0.257,8.193,2.138l102.504,82.742l0,0
	C491.043,113.188,494.654,126.758,489.951,138.823z"/>
<path d="M348.689,178.33c-2.53,0-5.061-0.954-7.008-2.868l-9.505-9.342c-3.833-3.767-10.069-3.766-13.9,0.001l-9.505,9.341
	c-3.938,3.873-10.269,3.817-14.14-0.122c-3.871-3.939-3.816-10.27,0.123-14.14l9.505-9.342
	c11.562-11.361,30.372-11.361,41.934-0.001l9.505,9.343c3.939,3.871,3.994,10.201,0.123,14.14
	C353.863,177.331,351.277,178.33,348.689,178.33z"/>
<path d="M210.239,178.33c-2.53,0-5.061-0.954-7.008-2.868l-9.505-9.342c-3.833-3.767-10.069-3.766-13.9,0.001l-9.505,9.341
	c-3.938,3.873-10.269,3.817-14.14-0.122c-3.871-3.939-3.816-10.27,0.123-14.14l9.505-9.342
	c11.562-11.361,30.372-11.361,41.934-0.001l9.505,9.343c3.939,3.871,3.994,10.201,0.123,14.14
	C215.413,177.331,212.827,178.33,210.239,178.33z"/>
<g>
</g>
<g>
</g>
<g>
</g>
<g>
</g>
<g>
</g>
<g>
</g>
<g>
</g>
<g>
</g>
<g>
</g>
<g>
</g>
<g>
</g>
<g>
</g>
<g>
</g>
<g>
</g>
<g>
</g>
</svg>
