<svg id="Capa_1" enable-background="new 0 0 512 512" height="512" viewBox="0 0 512 512" width="512" xmlns="http://www.w3.org/2000/svg"><path d="m436 170h-360c-8.284 0-15-6.716-15-15v-100c0-8.284 6.716-15 15-15h360c8.284 0 15 6.716 15 15v100c0 8.284-6.716 15-15 15z" fill="#50ccf0"/><path d="m436 40h-180v130h180c8.284 0 15-6.716 15-15v-100c0-8.284-6.716-15-15-15z" fill="#32afd7"/><path d="m486 512h-460c-8.284 0-15-6.716-15-15v-342c0-8.284 6.716-15 15-15h460c8.284 0 15 6.716 15 15v342c0 8.284-6.716 15-15 15z" fill="#82e0ff"/><path d="m486 140h-230v372h230c8.284 0 15-6.716 15-15v-342c0-8.284-6.716-15-15-15z" fill="#50ccf0"/><path d="m321 512h-130v-137c0-8.284 6.716-15 15-15h100c8.284 0 15 6.716 15 15z" fill="#ffe646"/><path d="m306 360h-50v152h65v-137c0-8.284-6.716-15-15-15z" fill="#fad21e"/><path d="m336 190h-160c-8.284 0-15-6.716-15-15v-160c0-8.284 6.716-15 15-15h160c8.284 0 15 6.716 15 15v160c0 8.284-6.716 15-15 15z" fill="#e8f2f8"/><path d="m336 0h-80v190h80c8.284 0 15-6.716 15-15v-160c0-8.284-6.716-15-15-15z" fill="#d2e1e6"/><path d="m286 80h-15v-15c0-8.284-6.716-15-15-15s-15 6.716-15 15v15h-15c-8.284 0-15 6.716-15 15s6.716 15 15 15h15v15c0 8.284 6.716 15 15 15s15-6.716 15-15v-15h15c8.284 0 15-6.716 15-15s-6.716-15-15-15z" fill="#fa7878"/><path d="m501 280h-65c-8.284 0-15-6.716-15-15v-50c0-8.284 6.716-15 15-15h65z" fill="#32afd7"/><path d="m501 440h-65c-8.284 0-15-6.716-15-15v-50c0-8.284 6.716-15 15-15h65z" fill="#32afd7"/><path d="m76 280h-65v-80h65c8.284 0 15 6.716 15 15v50c0 8.284-6.716 15-15 15z" fill="#50ccf0"/><path d="m76 440h-65v-80h65c8.284 0 15 6.716 15 15v50c0 8.284-6.716 15-15 15z" fill="#50ccf0"/><path d="m332.213 286 19.394-19.394c5.858-5.858 5.858-15.355 0-21.213-5.857-5.858-15.355-5.858-21.213 0l-25.607 25.607h-97.574l-25.606-25.606c-5.857-5.858-15.355-5.858-21.213 0s-5.858 15.355 0 21.213l19.393 19.393-19.394 19.394c-5.858 5.858-5.858 15.355 0 21.213 2.929 2.929 6.768 4.393 10.607 4.393s7.678-1.464 10.606-4.394l25.607-25.606h97.574l25.606 25.606c2.929 2.93 6.768 4.394 10.607 4.394s7.678-1.464 10.606-4.394c5.858-5.858 5.858-15.355 0-21.213z" fill="#e8f2f8"/><path d="m271 125v-15h15c8.284 0 15-6.716 15-15s-6.716-15-15-15h-15v-15c0-8.284-6.716-15-15-15v90c8.284 0 15-6.716 15-15z" fill="#f44650"/><path d="m351.606 245.394c-5.857-5.858-15.355-5.858-21.213 0l-25.606 25.606h-48.787v30h48.787l25.606 25.606c2.929 2.93 6.768 4.394 10.607 4.394s7.678-1.464 10.606-4.394c5.858-5.858 5.858-15.355 0-21.213l-19.393-19.393 19.394-19.394c5.858-5.857 5.858-15.355-.001-21.212z" fill="#d2e1e6"/></svg>