<svg id="Capa_1" enable-background="new 0 0 512 512" height="229" viewBox="0 0 512 512" width="229" xmlns="http://www.w3.org/2000/svg"><g><g><path d="m68.5 470.724v-433.224c0-16.569 13.431-30 30-30h330c8.284 0 15 6.716 15 15v422z" fill="#b3e59f"/><path d="m428.5 7.5h-30c8.284 0 15 6.716 15 15v422h30v-422c0-8.284-6.716-15-15-15z" fill="#95d6a4"/><path d="m98.5 7.5c-16.569 0-30 13.432-30 30v433.224l65.735-1.903v-31.874-429.447z" fill="#655e67"/><path d="m428.5 504.5h-326.224c-18.654 0-33.776-15.122-33.776-33.776 0-18.654 15.122-33.776 33.776-33.776h341.224v52.552c0 8.284-6.716 15-15 15z" fill="#f7f6f7"/><path d="m413.5 436.948v52.552c0 8.284-6.716 15-15 15h30c8.284 0 15-6.716 15-15v-52.552z" fill="#e2dfe3"/><g><g><circle cx="288.868" cy="154.724" fill="#f7f6f7" r="88.5"/><path d="m288.868 66.224c-5.112 0-10.123.441-15 1.278 41.679 7.146 73.5 43.536 73.5 87.222 0 43.687-31.821 80.077-73.5 87.223 4.877.836 9.888 1.277 15 1.277 48.799 0 88.5-39.701 88.5-88.5s-39.701-88.5-88.5-88.5z" fill="#edebed"/><path d="m341.368 139.724h-34.5c-1.657 0-3-1.343-3-3v-34.5c0-3.314-2.686-6-6-6h-18c-3.314 0-6 2.686-6 6v34.5c0 1.657-1.343 3-3 3h-34.5c-3.314 0-6 2.686-6 6v18c0 3.314 2.686 6 6 6h34.5c1.657 0 3 1.343 3 3v34.5c0 3.314 2.686 6 6 6h18c3.314 0 6-2.686 6-6v-34.5c0-1.657 1.343-3 3-3h34.5c3.314 0 6-2.686 6-6v-18c0-3.314-2.687-6-6-6z" fill="#dd636e"/></g></g></g><path d="m297.868 88.724h-18c-7.444 0-13.5 6.056-13.5 13.5v30h-30c-7.444 0-13.5 6.056-13.5 13.5v18c0 7.444 6.056 13.5 13.5 13.5h30v30c0 7.444 6.056 13.5 13.5 13.5h18c7.444 0 13.5-6.056 13.5-13.5v-30h30c7.444 0 13.5-6.056 13.5-13.5v-18c0-7.444-6.056-13.5-13.5-13.5h-30v-30c0-7.445-6.056-13.5-13.5-13.5zm42 58.5v15h-33c-5.79 0-10.5 4.71-10.5 10.5v33h-15v-33c0-5.79-4.71-10.5-10.5-10.5h-33v-15h33c5.79 0 10.5-4.71 10.5-10.5v-33h15v33c0 5.79 4.71 10.5 10.5 10.5zm103.632 218.5c4.142 0 7.5-3.357 7.5-7.5v-335.724c0-12.406-10.093-22.5-22.5-22.5h-330c-20.678 0-37.5 16.822-37.5 37.5v432.978c0 .028.004.055.004.083 0 .055-.004.109-.004.164 0 22.758 18.516 41.275 41.276 41.275h326.224c12.407 0 22.5-10.094 22.5-22.5v-96.276c0-4.143-3.358-7.5-7.5-7.5s-7.5 3.357-7.5 7.5v36.224h-294.265v-414.448h286.765c4.136 0 7.5 3.364 7.5 7.5v335.724c0 4.142 3.358 7.5 7.5 7.5zm-367.5-328.224c0-12.406 10.093-22.5 22.5-22.5h28.235v414.447h-24.459c-9.974 0-19.133 3.557-26.276 9.468zm360 406.947v45.053c0 4.136-3.364 7.5-7.5 7.5h-326.224c-14.489 0-26.276-11.787-26.276-26.276s11.787-26.276 26.276-26.276h333.724zm-215.506-346.347c-3.399-2.367-8.073-1.532-10.441 1.866-11.242 16.135-17.185 35.07-17.185 54.758 0 52.935 43.065 96 96 96s96-43.065 96-96-43.065-96-96-96c-18.32 0-36.147 5.202-51.553 15.045-3.49 2.23-4.512 6.867-2.282 10.358 2.23 3.489 6.867 4.514 10.358 2.282 12.989-8.299 28.023-12.686 43.477-12.686 44.664 0 81 36.337 81 81s-36.336 81-81 81-81-36.337-81-81c0-16.606 5.011-32.576 14.492-46.184 2.368-3.397 1.532-8.072-1.866-10.439zm-41.259 272.624c-4.142 0-7.5 3.357-7.5 7.5s3.358 7.5 7.5 7.5h174.265c4.142 0 7.5-3.357 7.5-7.5s-3.358-7.5-7.5-7.5zm219.265-90h-219.265c-4.142 0-7.5 3.357-7.5 7.5s3.358 7.5 7.5 7.5h219.265c4.142 0 7.5-3.357 7.5-7.5s-3.358-7.5-7.5-7.5zm7.5 52.5c0-4.143-3.358-7.5-7.5-7.5h-219.265c-4.142 0-7.5 3.357-7.5 7.5s3.358 7.5 7.5 7.5h219.265c4.142 0 7.5-3.358 7.5-7.5z"/></g></svg>