<svg id="Layer_1" enable-background="new 0 0 512 512" height="50" viewBox="0 0 512 512" width="50" xmlns="http://www.w3.org/2000/svg"><g><path d="m111.638 369.469c3.42-34.93-16.49-36.88-13.07-71.8 3.41-34.93 23.32-32.99 26.73-67.91h260.93c3.42 34.92 23.33 32.98 26.74 67.91 3.42 34.92-16.49 36.87-13.07 71.8s23.32 32.98 26.74 67.91h-341.74c2.7-27.61 15.71-32.18 22.72-50.14 1.86-4.75 3.3-10.45 4.02-17.77z" fill="#56788b"/><path d="m390.998 184.249-134.53 30-32.48-7.19-102.99-22.81s-8.44-80.61 30-119.03c4.49-4.48 9.56-8.54 15.12-12.18l81.67-.06 97.89-.08c5.63 3.68 10.78 7.78 15.32 12.32 38.44 38.421 30 119.03 30 119.03z" fill="#56788b"/><path d="m390.998 184.249-24.58 5.48-109.95 24.52-32.48-7.19v-95.59c0-22.76 9.07-43.39 23.8-58.49l73.92-.06 23.97-.02c5.63 3.68 10.78 7.78 15.32 12.32 38.44 38.421 30 119.03 30 119.03z" fill="#415e6f"/><path d="m390.998 184.249-24.58 5.48s9.02-86.09-29.42-124.51c-4.53-4.53-9.67-8.63-15.29-12.3l23.97-.02c5.63 3.68 10.78 7.78 15.32 12.32 38.44 38.421 30 119.03 30 119.03z" fill="#2a4451"/><path d="m426.638 437.378h-341.74c2.7-27.61 15.71-32.18 22.72-50.14 38.42-18.13 90.46-29.26 147.76-29.26 43.38 0 83.74 6.38 117.46 17.34 3.74 1.22 7.46-1.84 7.07-5.76 0-.03-.01-.06-.01-.09-3.42-34.93 16.49-36.88 13.07-71.8-3.41-34.93-23.32-32.99-26.74-67.91h20c3.42 34.92 23.33 32.98 26.74 67.91 3.42 34.92-16.49 36.87-13.07 71.8 3.42 34.931 23.32 32.98 26.74 67.91z" fill="#415e6f"/><g fill="#d87c3d"><path d="m152.141 225.716c-4.722 4.72-11.247 7.639-18.453 7.639-14.413 0-26.096-11.677-26.096-26.081s11.684-26.081 26.096-26.081c6.419 0 12.297 2.317 16.843 6.159z"/><path d="m359.805 225.716c4.722 4.72 11.247 7.639 18.453 7.639 14.413 0 26.096-11.677 26.096-26.081s-11.684-26.081-26.096-26.081c-6.419 0-12.297 2.317-16.843 6.159z"/></g><g><path d="m451.39 476.52v30.55c0 2.72-2.21 4.93-4.93 4.93h-380.92c-2.72 0-4.93-2.21-4.93-4.93v-30.55c0-56.47 75.1-79.32 118.54-87.81h153.71c43.44 8.49 118.53 31.34 118.53 87.81z" fill="#ff6b81"/><path d="m451.39 476.52v30.55c0 2.72-2.21 4.93-4.93 4.93h-380.92c-2.72 0-4.93-2.21-4.93-4.93v-16.61h342.17c10.21 0 18.48-8.27 18.48-18.48 0-48.46-55.29-72.16-98.43-83.27h10.03c43.44 8.49 118.53 31.34 118.53 87.81z" fill="#ed2061"/><path d="m332.86 388.71-.01.02c-.05.9-.12 1.79-.21 2.68-3.64 39.1-36.56 69.7-76.64 69.7-40.99 0-74.5-32.02-76.85-72.4 17.68-3.46 30.12-4.54 30.12-4.54h93.46s12.44 1.08 30.13 4.54z" fill="#fff9e9"/><path d="m302.73 384.17c0 25.8-20.92 46.71-46.73 46.71s-46.73-20.91-46.73-46.71c7.76 0 12.62-6.69 15.31-16.15 1.91-6.71 2.73-14.81 2.73-22.92h58.95c0 8.03.54 16.06 2.1 22.73 2.23 9.571 6.55 16.34 14.37 16.34z" fill="#fab684"/><path d="m288.36 367.831c-9.7 1.96-20.45 3.02-32.36 3.02-11.53 0-21.96-1-31.42-2.83 1.91-6.71 2.73-14.81 2.73-22.92h58.95c0 8.03.54 16.059 2.1 22.73z" fill="#ed975d"/></g><path d="m332.86 388.71-.01.02c-.05.9-.12 1.79-.21 2.68-10.69-3.13-20.97-5.49-29.91-7.24 0 0 12.44 1.08 30.13 4.54z" fill="#f9efd9"/><g><path d="m366.418 184.609v37.3c0 65.93-38.65 108.64-79.84 123.01-10.22 3.57-20.6 5.39-30.58 5.39-50.23 0-110.42-46.11-110.42-128.4v-37.6c0-5.19 4-9.48 9.18-9.9 48.61-3.96 69.23-39.14 69.23-62.8 0 37.51 49.19 61.36 132.7 63.06 5.4.11 9.73 4.53 9.73 9.94z" fill="#fab684"/></g><g><path d="m366.418 184.609v37.3c0 65.93-38.65 108.64-79.84 123.01 32.43-19.87 58.84-58.5 58.84-113.01v-31.3c0-5.41-4.33-9.83-9.73-9.94-83.51-1.7-111.7-41.55-111.7-79.06 0 37.51 49.19 61.36 132.7 63.06 5.4.11 9.73 4.53 9.73 9.94z" fill="#ed975d"/></g><g fill="#d87c3d"><path d="m282.61 278.094c-3.829-1.579-8.214.243-9.794 4.071-2.818 6.829-9.42 11.242-16.818 11.242s-14-4.413-16.818-11.242c-1.58-3.829-5.964-5.65-9.794-4.071-3.829 1.58-5.652 5.965-4.071 9.794 5.144 12.465 17.188 20.519 30.683 20.519s25.539-8.054 30.683-20.519c1.581-3.829-.243-8.214-4.071-9.794z"/><path d="m240.558 254.843c3.827 1.582 8.214-.243 9.794-4.071.946-2.291 3.162-3.772 5.646-3.772s4.7 1.48 5.646 3.772c1.194 2.893 3.989 4.641 6.936 4.641.953 0 1.922-.183 2.858-.569 3.829-1.58 5.652-5.965 4.071-9.794-3.271-7.927-10.93-13.049-19.511-13.049s-16.24 5.122-19.511 13.049c-1.581 3.828.242 8.213 4.071 9.793z"/></g><g><g><path d="m355.558 34.33c0 6.64-.95 22.86-9.8 30.11-3.42 2.8-8.2 4.21-14.54 4.21-2.63 0-5.53-.24-8.72-.73-5.38-.81-11.56-2.33-18.63-4.53-13.98-4.36-26.25-9.87-26.76-10.1l-4.42-1.99v-33.94l4.42-1.99c.51-.23 12.78-5.74 26.76-10.1 7.07-2.2 13.25-3.72 18.63-4.53 10.85-1.65 18.41-.49 23.26 3.48 8.85 7.25 9.8 23.47 9.8 30.11z" fill="#81ebeb"/><path d="m355.558 34.33c0 6.64-.95 22.86-9.8 30.11-3.42 2.8-8.2 4.21-14.54 4.21-2.63 0-5.53-.24-8.72-.73 9.05-8.78 10.06-26.26 10.06-33.59s-1.01-24.81-10.06-33.59c10.85-1.65 18.41-.49 23.26 3.48 8.85 7.25 9.8 23.47 9.8 30.11z" fill="#00cec8"/></g><g><path d="m156.179 34.334c0 6.64.95 22.86 9.8 30.11 3.42 2.8 8.2 4.21 14.54 4.21 2.63 0 5.53-.24 8.72-.73 5.38-.81 11.56-2.33 18.63-4.53 13.98-4.36 26.25-9.87 26.76-10.1l4.42-1.99v-33.94l-4.42-1.99c-.51-.23-12.78-5.74-26.76-10.1-7.07-2.2-13.25-3.72-18.63-4.53-10.85-1.65-18.41-.49-23.26 3.48-8.85 7.25-9.8 23.47-9.8 30.11z" fill="#81ebeb"/><path d="m156.179 34.334c0 6.64.95 22.86 9.8 30.11 3.42 2.8 8.2 4.21 14.54 4.21 2.63 0 5.53-.24 8.72-.73-9.05-8.78-10.06-26.26-10.06-33.59s1.01-24.81 10.06-33.59c-10.85-1.65-18.41-.49-23.26 3.48-8.85 7.25-9.8 23.47-9.8 30.11z" fill="#00cec8"/></g></g><path d="m289.728 34.33c0 18.93-15.41 34.33-34.35 34.33-3.66 0-7.19-.58-10.5-1.65-13.82-4.44-23.84-17.41-23.84-32.68s10.02-28.24 23.84-32.68c3.31-1.07 6.84-1.65 10.5-1.65 18.94 0 34.35 15.4 34.35 34.33z" fill="#00a3a8"/><path d="m289.728 34.33c0 18.93-15.41 34.33-34.35 34.33-3.66 0-7.19-.58-10.5-1.65 13.82-4.44 23.85-17.41 23.85-32.68s-10.03-28.24-23.85-32.68c3.31-1.07 6.84-1.65 10.5-1.65 18.94 0 34.35 15.4 34.35 34.33z" fill="#057f8e"/></g></svg>